<?xml version="1.0" encoding="utf-8"?>
<!-- Generator: Adobe Illustrator 22.1.0, SVG Export Plug-In . SVG Version: 6.00 Build 0)  -->
<svg version="1.1" id="Layer_1" xmlns="http://www.w3.org/2000/svg" xmlns:xlink="http://www.w3.org/1999/xlink" x="0px" y="0px"
	 width="578px" height="243.4px" viewBox="0 0 578 243.4" style="enable-background:new 0 0 578 243.4;" xml:space="preserve">
<style type="text/css">
	.st0{fill:#FFFFFF;}
</style>
<title>partner</title>
<path id="path2383" class="st0" d="M72.7,79c2.1,0.1,1.8,1.5,1.5,2c-6.1,9.5-20.5,26.1-30.9,44.4c-1.7,3-3,5.1-3,8.4
	c0,4.4,2.8,9.6,8.3,11.9c3.6,1.5,5.9,1.5,9.8,1.6c29.1,0.9,40.8,0.1,66.9-0.8c1.5,0,2.9-1,3.4-1.6c5-5.3,7.9-14.7,7.9-23
	c0-18.6-13.4-35.3-34.2-43.3L99,82.7c18.3,7.6,27.7,22.6,27.7,38.8c0,3.6-0.6,7.2-1.7,10.5c-0.8,2.3-1.8,3.7-4.8,3.7
	C99,136.2,87,136.6,65.7,136c-2.7-0.1-3.6-1.1-4.1-3.2c-0.3-1.3-0.1-2.4,0.8-4c11.3-20,31-42.9,34.8-48.3c0.7-1,0.4-3-2.1-3.7
	c-7.4-2.2-15.6-3.1-24-3.1c-38,0.2-64.8,21.5-65.4,48C7.2,153.6,34.9,170,71.1,170c22.1,0,42.4-7.8,54.3-20.2l-11,0.4
	c-10.1,9-26.3,13.8-43.1,13.8c-30.6,0-55.5-15.2-55.5-42.5c0-23.5,24.9-42.6,55.5-42.6L72.7,79z"/>
<path class="st0" d="M555.6,115.8h-47.1c0.4-6,5.6-10.7,11.9-10.7h47.5v-10h-47.7c-17.9,0-32.4,13.6-33.2,30.7l57.5-0.1
	c3.7,0,6.8,2.5,6.8,5.4c0,3-3,5.4-6.8,5.4l-63.3,0V95.1h-18.8v41.3h-37.7c-5.5-0.9-7.3-4.9-7.3-12.8l0-28.5h-30.3l-27.2,17.7
	l-23.7-17.7h-72.9c-16.2,0-29.6,11.1-32.6,25.9h14.6c-5.5,3.7-9.8,9.1-12.1,15.3l-46.4,0c-5.5-0.9-7.3-4.9-7.3-12.8l0-28.5h-18.7
	v26.6c-0.8,17.6,8.8,23.9,19.7,24.9l145.6,0l26.8-17.3l23.4,17.6h28.7l-36.5-27.5l30-19.5l0.1,21.7c-0.8,17.6,9.7,23.9,20.6,24.9
	l136.3,0c9.4,0,17-6.9,17-15.4C572.6,122.7,565,115.8,555.6,115.8z M323.8,136.4h-68.3c0.3-6.2,5.6-11.1,12.1-11.1l41-0.1v-10.2
	l-53.7,0.1c0.9-5.6,5.9-9.9,11.9-9.9h46.3v-5.7l31.3,23.3L323.8,136.4z"/>
</svg>
