<svg xmlns="http://www.w3.org/2000/svg" viewBox="0 0 566.8 96.3" style="enable-background:new 0 0 566.8 96.3;">
<style type="text/css">
	.st0{fill:#FFFFFF;}
</style>
<title>partner</title>
<path id="path2383" class="st0" d="M67,5.3c2.1,0.1,1.8,1.5,1.5,2C62.4,16.8,48,33.4,37.6,51.7c-1.7,3-3,5.1-3,8.4
	c0,4.4,2.8,9.6,8.3,11.9c3.6,1.5,5.9,1.5,9.8,1.6c29.1,0.9,40.8,0.1,66.9-0.8c1.5,0,2.9-1,3.4-1.6c5-5.3,7.9-14.7,7.9-23
	c0-18.6-13.4-35.3-34.2-43.3L93.3,9c18.3,7.6,27.7,22.6,27.7,38.8c0,3.6-0.6,7.2-1.7,10.5c-0.8,2.3-1.8,3.7-4.8,3.7
	c-21.2,0.5-33.2,0.9-54.5,0.3c-2.7-0.1-3.6-1.1-4.1-3.2c-0.3-1.3-0.1-2.4,0.8-4c11.3-20,31-42.9,34.8-48.3c0.7-1,0.4-3-2.1-3.7
	C82,0.9,73.8,0,65.4,0C27.4,0.2,0.6,21.5,0,48c1.5,31.9,29.2,48.3,65.4,48.3c22.1,0,42.4-7.8,54.3-20.2l-11,0.4
	c-10.1,9-26.3,13.8-43.1,13.8c-30.6,0-55.5-15.2-55.5-42.5C10.1,24.3,35,5.2,65.6,5.2L67,5.3z"/>
<path class="st0" d="M549.9,42.1h-47.1c0.4-6,5.6-10.7,11.9-10.7h47.5v-10h-47.7c-17.9,0-32.4,13.6-33.2,30.7l57.5-0.1
	c3.7,0,6.8,2.5,6.8,5.4c0,3-3,5.4-6.8,5.4h-63.3V21.4h-18.8v41.3H419c-5.5-0.9-7.3-4.9-7.3-12.8V21.4h-30.3l-27.2,17.7l-23.7-17.7
	h-72.9c-16.2,0-29.6,11.1-32.6,25.9h14.6c-5.5,3.7-9.8,9.1-12.1,15.3h-46.4c-5.5-0.9-7.3-4.9-7.3-12.8V21.3h-18.7v26.6
	c-0.8,17.6,8.8,23.9,19.7,24.9h145.6l26.8-17.3l23.4,17.6h28.7l-36.5-27.5l30-19.5l0.1,21.7c-0.8,17.6,9.7,23.9,20.6,24.9h136.3
	c9.4,0,17-6.9,17-15.4C566.9,49,559.3,42.1,549.9,42.1z M318.1,62.7h-68.3c0.3-6.2,5.6-11.1,12.1-11.1l41-0.1V41.3l-53.7,0.1
	c0.9-5.6,5.9-9.9,11.9-9.9h46.3v-5.7l31.3,23.3L318.1,62.7z"/>
</svg>
